<svg width="32" height="32" viewBox="0 0 32 32" xmlns="http://www.w3.org/2000/svg">
  <!-- Pixel heart shape -->
  <style>
    rect { shape-rendering: crispEdges; }
  </style>
  <g fill="#FF69B4">
    <!-- Row 1 -->
    <rect x="8" y="6" width="4" height="4" />
    <rect x="20" y="6" width="4" height="4" />
    <!-- Row 2 -->
    <rect x="4" y="10" width="4" height="4" />
    <rect x="8" y="10" width="4" height="4" />
    <rect x="12" y="10" width="4" height="4" />
    <rect x="16" y="10" width="4" height="4" />
    <rect x="20" y="10" width="4" height="4" />
    <rect x="24" y="10" width="4" height="4" />
    <!-- Row 3 -->
    <rect x="4" y="14" width="4" height="4" />
    <rect x="8" y="14" width="4" height="4" />
    <rect x="12" y="14" width="4" height="4" />
    <rect x="16" y="14" width="4" height="4" />
    <rect x="20" y="14" width="4" height="4" />
    <rect x="24" y="14" width="4" height="4" />
    <!-- Row 4 -->
    <rect x="8" y="18" width="4" height="4" />
    <rect x="12" y="18" width="4" height="4" />
    <rect x="16" y="18" width="4" height="4" />
    <rect x="20" y="18" width="4" height="4" />
    <!-- Row 5 -->
    <rect x="12" y="22" width="4" height="4" />
    <rect x="16" y="22" width="4" height="4" />
  </g>
</svg> 